<svg xmlns="http://www.w3.org/2000/svg" viewBox="0 0 1200 720" role="img">
<title>C / 唐布拉深住型</title>
<rect width="1200" height="720" rx="22" fill="#e9e5d9"/>
<g stroke="#53663e" stroke-opacity=".12" stroke-width="1">
<path d="M100 0V720"/>
<path d="M200 0V720"/>
<path d="M300 0V720"/>
<path d="M400 0V720"/>
<path d="M500 0V720"/>
<path d="M600 0V720"/>
<path d="M700 0V720"/>
<path d="M800 0V720"/>
<path d="M900 0V720"/>
<path d="M1000 0V720"/>
<path d="M1100 0V720"/>
<path d="M0 100H1200"/>
<path d="M0 200H1200"/>
<path d="M0 300H1200"/>
<path d="M0 400H1200"/>
<path d="M0 500H1200"/>
<path d="M0 600H1200"/>
<path d="M0 700H1200"/>
</g>
<text x="44" y="52" font-family="IBM Plex Sans, sans-serif" font-size="30" font-weight="600" fill="#222a20">C / 唐布拉深住型</text>
<text x="44" y="84" font-family="IBM Plex Mono, monospace" font-size="18" fill="#596055">伊宁↔唐布拉 286 km · 大西沟条件支线 79 km</text>
<polyline points="243.5,349.1 243.5,348.9 243.5,348.9 243.6,348.9 243.6,348.9 243.7,348.9 243.7,348.8 243.8,348.8 243.8,348.7 243.8,348.7 243.8,348.7 243.8,348.7 244.2,348.7 244.2,348.7 244.2,348.5 244.2,348.3 244.2,348.3 244.2,348.1 244.2,348.0 245.4,348.0 245.4,348.0 246.1,348.0 246.3,347.9 246.6,347.9 247.2,347.8 247.8,347.7 247.8,347.7 248.2,347.7 248.9,347.5 250.3,347.3 250.5,347.3 252.4,347.3 252.4,347.3 254.1,347.2 254.1,347.2 255.0,347.2 255.7,347.2 255.7,347.2 257.2,347.1 257.3,347.1 257.3,347.1 257.3,347.1 257.3,346.2 257.4,346.2 257.6,346.1 257.6,346.1 258.7,346.0 258.7,346.0 259.5,346.1 259.6,346.1 260.9,345.6 261.0,345.6 261.1,345.6 261.1,345.6 261.1,345.6 261.2,345.6 261.2,345.6 261.2,345.5 261.3,345.5 261.3,345.4 262.2,345.0 263.1,344.6 263.6,344.4 263.7,344.4 263.8,344.3 264.1,344.2 264.1,344.1 265.1,343.5 265.5,343.1 266.4,342.6 266.6,342.5 266.6,342.4 266.8,342.4 267.6,342.2 267.7,342.2 267.8,342.2 268.0,342.2 268.4,342.1 269.1,342.1 269.1,342.1 270.1,342.0 271.9,341.8 273.1,341.7 273.4,341.7 274.0,341.7 275.0,341.9 275.0,341.9 275.3,341.9 275.3,341.9 275.8,342.0 280.2,342.7 281.9,343.0 282.5,343.1 282.7,343.2 282.9,343.2 283.3,343.3 283.4,343.4 283.5,343.4 283.8,343.6 284.0,343.6 284.2,343.7 284.6,343.9 284.8,344.0 285.2,344.2 289.0,346.0 289.1,346.0 289.5,346.2 289.9,346.3 290.2,346.3 290.6,346.4 290.7,346.4 291.0,346.4 296.4,347.0 296.7,347.1 297.4,347.1 297.7,347.2 298.0,347.2 298.3,347.2 299.0,347.3 300.1,347.4 300.7,347.5 301.0,347.5 302.5,347.6 303.9,347.6 304.2,347.7 304.6,347.7 305.5,347.8 308.0,348.1 313.5,348.7 314.1,348.8 314.8,348.8 315.3,348.8 315.4,348.8 315.9,348.9 316.1,348.9 316.3,348.9 316.6,349.0 324.6,350.3 326.2,350.5 327.4,350.7 335.6,352.0 336.0,352.1 336.2,352.1 340.7,353.3 341.7,353.6 342.6,353.8 343.5,354.0 344.6,354.3 345.5,354.5 346.4,354.8 347.4,355.0 348.1,355.2 348.4,355.3 350.5,355.8 353.0,356.4 353.7,356.6 356.6,357.4 356.8,357.4 362.1,358.7 363.0,359.0 363.3,359.1 364.1,359.2 364.8,359.4 365.9,359.7 366.7,359.9 367.3,359.9 367.4,359.9 367.6,359.9 367.9,359.8 368.1,359.8 368.2,359.8 368.4,359.9 371.3,360.5 374.4,361.2 381.6,362.5 381.5,362.6 381.5,362.8 381.5,363.0 381.5,363.1 381.4,363.2 381.4,363.3 381.3,363.3 381.3,363.4 380.9,363.7 380.7,363.8 380.6,363.9 380.6,363.9 380.4,364.0 380.3,364.0 380.3,364.0 380.2,363.9 380.1,363.9 380.0,363.8 380.0,363.8 380.1,363.7 380.1,363.7 380.1,363.6 380.2,363.6 380.3,363.6 380.4,363.6 381.5,363.9 382.4,364.3 383.5,364.9 387.0,366.8 388.0,367.3 393.1,370.0 393.7,370.4 398.7,373.0 400.1,373.7 401.0,374.1 402.0,374.5 403.0,374.8 403.3,374.9 403.6,375.0 405.8,375.8 406.1,375.9 407.1,376.3 407.7,376.5 408.2,376.7 409.1,377.2 410.8,378.4 412.1,380.3 414.9,384.4 415.5,385.1 416.2,385.7 416.8,386.1 417.1,386.3 417.4,386.5 418.5,387.2 418.7,387.3 419.2,387.6 419.9,388.0 421.3,388.9 421.6,389.0 422.5,389.6 423.6,390.3 426.0,391.7 426.1,391.8 426.4,392.0 427.1,392.5 427.7,393.0 428.0,393.3 429.5,395.2 429.6,395.3 429.9,395.6 430.1,395.8 430.5,396.0 430.9,396.3 431.3,396.5 431.7,396.7 432.1,396.8 432.4,396.9 432.7,397.0 435.0,397.6 435.9,397.9 436.1,397.9 436.2,398.0 436.4,398.0 436.5,398.0 436.7,398.0 436.9,398.1 437.0,398.1 437.2,398.1 437.3,398.1 437.5,398.2 437.7,398.2 437.8,398.2 438.0,398.2 438.4,398.2 439.4,398.2 440.3,398.2 441.3,398.2 442.4,398.3 442.6,398.3 442.7,398.3 442.9,398.3 443.1,398.3 443.2,398.3 443.4,398.3 443.5,398.3 443.6,398.4 443.8,398.4 444.6,398.5 444.7,398.5 444.9,398.6 445.1,398.6 445.2,398.6 445.4,398.7 445.5,398.7 445.7,398.7 445.8,398.8 446.0,398.8 446.1,398.9 446.3,398.9 446.4,399.0 446.6,399.0 446.7,399.1 446.9,399.1 447.0,399.2 447.2,399.2 447.3,399.3 447.5,399.4 448.3,399.7 449.4,400.3 450.5,400.9 451.5,401.5 452.4,402.0 453.4,402.8 454.2,403.5 455.0,404.1 456.4,405.5 457.9,406.9 458.8,407.8 459.0,407.9 459.1,408.0 459.2,408.1 459.3,408.2 459.4,408.3 459.5,408.4 459.7,408.5 459.8,408.6 460.0,408.7 460.1,408.8 460.3,408.9 460.4,409.0 460.6,409.1 460.7,409.2 460.9,409.3 461.0,409.3 461.2,409.4 461.3,409.5 461.5,409.6 461.6,409.6 461.8,409.7 462.0,409.8 462.1,409.9 462.3,409.9 462.5,410.0 462.7,410.1 462.9,410.1 463.0,410.2 463.2,410.3 463.4,410.3 463.5,410.4 463.7,410.4 463.9,410.5 465.9,411.0 467.9,411.5 470.0,412.1 471.9,412.6 474.2,413.2 474.4,413.2 474.5,413.3 474.7,413.3 474.8,413.4 475.0,413.4 475.2,413.5 475.4,413.6 475.5,413.6 475.6,413.6 475.7,413.7 475.8,413.7 476.0,413.8 476.1,413.8 476.2,413.9 476.4,414.0 476.5,414.1 476.7,414.1 476.8,414.2 476.9,414.3 477.1,414.4 477.2,414.4 477.4,414.5 477.5,414.6 477.6,414.7 477.7,414.8 477.9,414.9 478.0,415.0 478.1,415.1 478.2,415.1 478.3,415.2 478.4,415.3 478.5,415.4 478.6,415.5 478.7,415.6 479.3,416.2 480.2,417.0 481.1,417.9 482.1,418.9 483.0,419.7 484.5,421.2 484.7,421.4 485.6,422.2 486.4,423.1 486.5,423.1 486.8,423.4 486.9,423.5 487.6,424.1 488.7,425.2 489.6,426.1 490.1,426.6 490.5,426.9 490.9,427.3 491.0,427.4 491.1,427.5 491.2,427.6 491.3,427.7 491.4,427.8 491.5,427.9 491.7,428.0 491.8,428.1 491.9,428.2 492.0,428.3 492.2,428.4 492.2,428.4 492.3,428.4 492.4,428.5 492.6,428.6 492.7,428.7 492.9,428.7 493.0,428.8 493.1,428.9 493.3,428.9 493.4,429.0 493.5,429.0 493.7,429.1 493.8,429.1 493.9,429.2 494.1,429.2 494.2,429.3 494.3,429.3 494.5,429.3 494.6,429.4 494.7,429.4 494.9,429.4 495.0,429.5 495.1,429.5 495.3,429.5 495.4,429.5 495.6,429.5 495.7,429.6 496.2,429.6 496.3,429.6 496.4,429.6 496.6,429.6 496.7,429.6 496.8,429.6 496.9,429.6 497.0,429.6 497.1,429.6 497.3,429.6 498.6,429.6 499.4,429.5 499.5,429.5 499.6,429.5 499.8,429.5 499.9,429.5 500.0,429.6 500.1,429.6 500.3,429.6 500.4,429.6 500.5,429.6 500.6,429.6 500.8,429.6 500.9,429.7 501.1,429.7 501.2,429.7 501.4,429.8 501.5,429.8 501.6,429.8 501.8,429.9 501.9,429.9 502.0,430.0 502.2,430.0 502.3,430.1 502.4,430.1 502.5,430.2 502.6,430.2 502.7,430.3 502.9,430.3 503.0,430.4 503.1,430.4 503.2,430.5 503.3,430.6 503.4,430.6 503.5,430.7 503.6,430.8 503.7,430.9 503.9,431.0 504.0,431.1 504.1,431.2 504.7,431.6 505.4,432.2 505.5,432.3 505.5,432.3 505.6,432.4 505.7,432.4 505.8,432.5 505.9,432.5 506.0,432.6 506.1,432.6 506.1,432.7 506.2,432.7 506.3,432.8 506.4,432.8 506.6,432.9 506.7,432.9 506.8,432.9 506.9,432.9 507.0,433.0 507.1,433.0 507.2,433.0 507.3,433.0 507.4,433.1 507.5,433.1 507.7,433.1 507.9,433.1 508.0,433.1 508.1,433.1 508.6,433.1 508.9,433.1 510.6,433.1 510.7,433.1 510.8,433.1 511.0,433.1 511.1,433.1 511.2,433.1 511.3,433.1 511.4,433.1 511.6,433.1 511.7,433.1 511.8,433.1 511.9,433.1 511.9,433.2 512.1,433.2 512.2,433.2 512.3,433.2 512.4,433.3 512.5,433.3 512.6,433.3 512.7,433.3 512.8,433.4 513.3,433.5 514.1,433.9 514.8,434.1 515.4,434.4 515.6,434.4 515.7,434.5 515.8,434.5 516.0,434.5 516.1,434.6 516.2,434.6 516.3,434.6 516.5,434.7 516.6,434.7 516.7,434.7 516.8,434.7 516.9,434.7 517.0,434.7 517.1,434.7 517.2,434.8 517.3,434.8 517.4,434.8 517.6,434.8 517.7,434.8 517.8,434.8 517.9,434.8 518.1,434.7 518.2,434.7 518.3,434.7 518.4,434.7 518.6,434.7 518.7,434.7 518.8,434.6 518.9,434.6 519.7,434.4 520.9,434.1 521.0,434.0 521.1,434.0 521.2,434.0 521.3,434.0 521.4,434.0 521.5,434.0 521.6,433.9 521.7,433.9 521.8,433.9 521.9,433.9 522.1,433.9 522.2,433.9 522.3,433.9 522.8,434.0 523.3,434.0 524.1,434.2 524.4,434.2 524.9,434.3 525.4,434.3 525.7,434.3 526.5,434.2 526.7,434.2 526.8,434.2 527.0,434.2 527.1,434.2 527.3,434.1 527.4,434.1 527.7,434.0 527.8,434.0 528.0,434.0 528.2,434.0 528.3,433.9 528.5,433.9 528.6,433.9 528.8,433.9 529.0,433.8 529.1,433.8 529.3,433.8 529.4,433.8 529.6,433.8 529.7,433.8 529.8,433.8 530.0,433.8 530.1,433.8 530.2,433.8 530.3,433.8 530.5,433.8 530.6,433.8 530.8,433.8 530.9,433.8 531.1,433.8 531.2,433.9 531.4,433.9 531.5,433.9 531.7,433.9 531.8,434.0 532.4,434.1 533.3,434.3 534.7,434.7 534.8,434.7 535.6,434.9 537.0,435.4 537.2,435.5 537.4,435.5 537.6,435.6 537.8,435.7 538.0,435.8 538.2,435.9 538.4,436.0 538.6,436.1 538.7,436.2 539.9,436.8 540.4,437.1 540.5,437.1 540.6,437.2 540.7,437.2 540.8,437.3 540.9,437.3 541.0,437.4 541.1,437.4 541.2,437.5 541.4,437.5 541.5,437.6 541.6,437.6 541.7,437.6 541.8,437.7 541.9,437.7 542.1,437.7 542.2,437.7 542.3,437.8 542.4,437.8 542.5,437.8 542.7,437.8 542.8,437.8 543.0,437.8 543.1,437.9 543.2,437.9 543.4,437.9 543.5,437.9 543.7,437.9 543.8,437.9 543.9,437.9 544.1,437.9 544.2,437.9 544.4,437.9 544.5,437.8 544.6,437.8 544.8,437.8 544.9,437.8 546.0,437.6 547.1,437.5 547.3,437.5 547.4,437.5 547.6,437.5 547.8,437.4 548.0,437.4 548.2,437.4 548.4,437.4 548.5,437.4 548.6,437.4 548.8,437.4 549.0,437.4 549.2,437.4 549.3,437.4 549.6,437.4 549.9,437.5 550.2,437.5 550.5,437.5 550.8,437.5 551.1,437.6 552.2,437.7 554.1,437.9 555.2,438.0 555.4,438.0 555.5,438.0 555.7,438.0 555.9,438.1 556.0,438.1 556.2,438.1 556.3,438.1 556.5,438.1 556.7,438.0 556.8,438.0 557.0,438.0 557.2,438.0 557.3,438.0 557.5,438.0 557.7,438.0 558.2,437.9 558.4,437.8 558.5,437.8 558.7,437.8 558.8,437.7 558.9,437.7 559.1,437.7 559.3,437.6 559.4,437.6 560.4,437.2 560.9,437.1 561.0,437.0 561.2,437.0 561.4,436.9 561.5,436.9 561.7,436.8 561.9,436.8 562.1,436.7 562.3,436.7 562.4,436.7 562.5,436.6 562.7,436.6 562.8,436.6 563.0,436.5 563.1,436.5 563.3,436.5 563.5,436.5 563.7,436.5 563.9,436.4 564.1,436.4 564.3,436.4 564.5,436.4 564.7,436.4 564.9,436.4 565.1,436.3 565.3,436.3 565.5,436.3 566.5,436.4 568.0,436.4 570.2,436.4 571.7,436.5 572.2,436.5 573.2,436.5 574.6,436.5 575.9,436.6 576.2,436.6 576.6,436.6 576.9,436.6 577.2,436.6 577.5,436.6 577.8,436.6 578.1,436.7 578.4,436.7 578.7,436.7 579.0,436.8 579.4,436.8 579.8,436.9 580.2,436.9 580.7,437.0 581.3,437.1 583.0,437.4 584.5,437.6 584.6,437.6 585.9,437.8 587.4,438.0 587.6,438.1 587.8,438.1 588.0,438.1 588.2,438.2 588.4,438.2 588.6,438.2 588.8,438.2 589.1,438.3 589.3,438.3 589.6,438.3 589.9,438.4 590.1,438.4 590.4,438.4 591.2,438.4 591.7,438.4 592.7,438.5 592.9,438.5 593.1,438.5 593.2,438.5 593.4,438.5 593.6,438.5 593.8,438.5 594.0,438.5 594.2,438.5 594.7,438.5 595.3,438.5 595.7,438.5 595.8,438.5 595.9,438.5 596.0,438.5 596.2,438.5 596.3,438.6 596.4,438.6 596.5,438.6 596.6,438.6 596.8,438.6 596.9,438.7 597.0,438.7 597.1,438.7 597.3,438.8 597.4,438.8 597.5,438.8 597.6,438.9 597.7,438.9 597.9,439.0 598.0,439.0 598.2,439.1 598.3,439.2 598.5,439.2 598.6,439.3 598.8,439.4 599.1,439.6 599.3,439.6 599.5,439.7 599.7,439.8 599.9,439.8 600.0,439.9 600.8,440.1 602.5,440.5 604.0,440.9 604.4,441.0 604.5,441.0 604.6,441.0 604.7,441.1 604.8,441.1 604.9,441.1 605.1,441.1 605.2,441.1 605.3,441.2 605.4,441.2 605.5,441.2 605.7,441.2 605.8,441.2 605.9,441.2 606.1,441.2 606.2,441.2 606.4,441.2 606.5,441.2 606.6,441.2 606.8,441.2 606.9,441.2 607.7,441.1 608.1,441.1 608.3,441.1 608.5,441.1 608.8,441.1 609.2,441.1 609.5,441.1 609.6,441.1 609.8,441.1 609.9,441.1 610.0,441.2 610.1,441.2 610.2,441.2 610.4,441.2 610.5,441.2 610.6,441.3 610.7,441.3 610.9,441.3 611.0,441.4 611.1,441.4 611.1,441.4 611.2,441.5 611.3,441.5 611.4,441.5 611.5,441.6 611.6,441.6 611.6,441.6 611.7,441.7 611.8,441.7 612.1,441.9 612.4,442.1 612.6,442.2 613.0,442.2 613.1,442.3 613.2,442.3 613.3,442.3 613.4,442.4 613.5,442.4 613.6,442.4 613.7,442.4 613.8,442.4 613.9,442.5 614.1,442.5 614.2,442.5 614.3,442.5 614.4,442.5 614.5,442.5 615.2,442.4 616.4,442.4 617.4,442.3 617.7,442.3 618.3,442.3 618.9,442.3 618.9,442.3 619.0,442.3 619.1,442.3 619.2,442.3 619.3,442.3 619.4,442.3 619.5,442.3 619.6,442.3 619.7,442.3 619.7,442.3 619.8,442.3 619.9,442.4 620.0,442.4 620.1,442.4 620.2,442.4 620.3,442.5 620.4,442.5 620.5,442.5 620.6,442.6 620.7,442.6 620.8,442.7 620.9,442.7 621.0,442.8 621.1,442.8 621.2,442.8 621.2,442.9 621.3,442.9 621.4,443.0 621.4,443.0 621.5,443.1 621.6,443.1 621.6,443.2 621.7,443.2 622.0,443.5 622.4,443.8 622.5,443.9 622.6,443.9 622.7,444.0 622.7,444.0 622.8,444.1 622.9,444.1 623.0,444.2 623.1,444.2 623.2,444.3 623.3,444.3 623.4,444.3 623.6,444.4 623.7,444.4 623.8,444.5 623.9,444.5 624.0,444.5 624.1,444.5 624.2,444.5 624.4,444.6 624.5,444.6 624.6,444.6 624.7,444.6 624.8,444.6 624.9,444.6 625.1,444.6 625.3,444.6 625.4,444.6 625.6,444.6 625.7,444.6 625.9,444.6 627.0,444.4 628.4,444.3 630.1,444.0 630.4,444.0 631.7,443.9 631.9,443.8 633.0,443.7 633.4,443.7 635.2,443.4 636.6,443.3 636.8,443.3 637.0,443.2 637.2,443.2 637.4,443.2 637.6,443.2 637.9,443.2 638.1,443.1 638.3,443.1 638.6,443.1 638.8,443.1 640.1,443.1 640.4,443.1 640.7,443.1 641.0,443.1 641.3,443.1 641.6,443.2 641.9,443.2 642.2,443.2 642.5,443.2 643.7,443.3 644.6,443.5 645.8,443.7 647.5,443.9 647.7,443.9 648.0,444.0 648.3,444.0 648.6,444.0 648.9,444.1 649.2,444.1 649.4,444.1 649.7,444.2 649.9,444.2 650.2,444.2 650.5,444.2 650.8,444.2 651.1,444.3 651.3,444.3 651.6,444.3 651.9,444.3 652.2,444.3 652.5,444.3 652.8,444.3 653.1,444.3 653.3,444.3 653.6,444.3 656.8,444.2 659.5,444.2 661.7,444.1 663.4,444.1 664.3,444.1 664.5,444.1 666.2,444.0 667.5,444.0 669.4,444.0 672.1,443.9 673.1,443.9 673.4,443.9 673.7,443.9 674.0,443.9 674.3,443.9 674.5,443.8 674.8,443.8 675.1,443.8 675.3,443.8 675.6,443.8 675.9,443.7 676.1,443.7 676.4,443.7 676.7,443.6 677.0,443.6 677.3,443.5 677.6,443.5 677.9,443.4 678.2,443.4 678.5,443.3 678.8,443.3 679.0,443.2 679.2,443.2 679.3,443.2 679.5,443.1 679.7,443.1 679.9,443.1 680.1,443.1 680.3,443.0 680.5,443.0 680.7,443.0 680.9,443.0 681.1,443.0 681.3,443.0 681.5,443.0 681.7,443.0 681.9,443.0 682.1,443.0 682.2,443.0 682.4,443.0 682.6,443.0 682.8,443.0 683.0,443.0 683.1,443.1 683.3,443.1 683.5,443.1 683.7,443.1 683.9,443.2 684.0,443.2 684.2,443.2 687.0,443.9 689.8,444.6 692.6,445.3 696.0,446.1 696.2,446.2 696.5,446.2 696.8,446.3 697.1,446.4 697.4,446.4 697.7,446.5 697.9,446.5 698.2,446.5 698.5,446.6 698.8,446.6 699.0,446.6 699.3,446.7 699.5,446.7 699.8,446.7 700.1,446.8 700.4,446.8 700.7,446.8 701.0,446.8 701.3,446.8 701.5,446.9 701.8,446.9 702.1,446.9 702.3,446.9 702.6,446.9 702.9,446.9 703.1,446.9 703.4,446.9 714.3,446.7 715.8,446.7 717.3,446.8 719.3,447.1 720.8,447.4 725.7,448.5 727.6,448.8 729.4,449.0 731.0,449.1 733.2,449.0 734.7,448.9 737.4,448.7 743.7,448.1 745.1,448.0 746.9,448.1 748.4,448.2 753.9,448.8 756.8,449.2 757.7,449.4 760.7,449.8 762.3,450.1 764.1,450.6 767.4,451.6 768.7,452.0 770.8,452.5 771.5,452.7 772.0,452.8 772.4,452.9 773.0,453.0 774.0,453.2 774.6,453.3 776.2,453.4 776.9,453.5 778.2,453.5 781.7,453.6 782.2,453.6 782.6,453.6 784.7,453.6 785.1,453.6 785.5,453.6 785.9,453.7 786.3,453.7 786.7,453.7 787.1,453.7 787.4,453.7 787.8,453.7 788.2,453.7 788.4,453.7 789.2,453.6 789.4,453.6 789.6,453.6 789.9,453.6 790.3,453.6 790.6,453.5 791.0,453.5 791.3,453.5 791.7,453.4 792.9,453.3 793.6,453.2 794.0,453.1 795.0,453.0 795.3,453.0 795.5,452.9 795.7,452.9 796.0,452.9 796.2,452.9 796.4,452.8 796.6,452.8 796.8,452.8 796.9,452.8 797.1,452.8 797.2,452.8 797.4,452.8 797.5,452.8 797.7,452.8 797.8,452.8 797.9,452.8 799.2,452.9 799.3,452.9 799.5,452.9 799.6,452.9 799.8,452.9 799.9,452.9 800.1,452.9 800.2,453.0 800.3,453.0 800.5,453.0 800.6,453.1 800.7,453.1 800.9,453.1 801.0,453.1 801.2,453.2 801.4,453.2 801.5,453.2 801.7,453.3 801.8,453.3 801.9,453.4 802.1,453.4 802.3,453.4 803.3,453.7 804.5,454.0 805.7,454.3 807.2,454.7 808.8,455.1 810.3,455.5 811.4,455.8 812.0,455.9 812.2,456.0 812.4,456.0 812.6,456.1 812.7,456.1 812.9,456.1 813.1,456.1 813.3,456.2 813.5,456.2 813.7,456.2 814.0,456.3 814.2,456.3 814.4,456.3 814.6,456.4 814.8,456.4 815.1,456.4 816.4,456.6 817.9,456.7 818.8,456.8 820.0,457.0 820.4,457.0 820.6,457.0 821.1,457.1 821.5,457.2 821.9,457.2 822.4,457.2 823.5,457.4 824.1,457.4 824.3,457.4 824.5,457.5 824.6,457.5 824.8,457.5 825.0,457.5 825.2,457.5 825.3,457.5 825.5,457.5 825.7,457.5 825.8,457.5 826.0,457.4 826.3,457.4 826.5,457.4 826.7,457.4 826.9,457.4 827.2,457.3 827.4,457.3 827.6,457.2 827.7,457.2 827.9,457.2 828.1,457.1 828.3,457.1 828.5,457.0 828.7,457.0 829.4,456.8 830.1,456.5 830.9,456.2 832.1,455.8 832.4,455.7 832.6,455.7 832.9,455.6 833.3,455.5 833.6,455.4 833.8,455.3 834.1,455.3 834.3,455.2 835.0,455.0 835.3,455.0 835.9,454.9 836.9,454.7 837.1,454.7 837.3,454.7 837.5,454.6 837.7,454.6 837.9,454.6 838.1,454.6 838.4,454.6 839.1,454.5 839.5,454.5 839.6,454.5 839.6,454.5 839.6,454.5 839.7,454.5 839.7,454.5 839.7,454.5 839.8,454.6 839.8,454.6 839.9,454.6 839.9,454.6 839.9,454.6 839.9,454.6 840.0,454.7 840.0,454.7 840.0,454.7 840.0,454.7 840.0,454.8 840.0,454.8 840.0,454.8 840.0,454.8 840.0,454.9 840.0,454.9 840.0,454.9 840.0,455.0 839.9,455.0 839.9,455.0 839.9,455.1 839.8,455.1 839.8,455.1 839.8,455.1 839.7,455.2 839.7,455.2 839.6,455.2 839.6,455.2 839.5,455.2 839.5,455.3 839.4,455.3 839.4,455.3 839.2,455.3 838.9,455.4 838.4,455.5 838.4,455.5 838.3,455.5 838.3,455.5 838.2,455.5 838.2,455.5 838.1,455.6 838.1,455.6 838.0,455.6 838.0,455.6 837.9,455.7 837.9,455.7 837.9,455.7 837.8,455.8 837.8,455.8 837.8,455.8 837.7,455.9 837.7,455.9 837.7,456.0 837.7,456.0 837.7,456.0 837.7,456.1 837.7,456.1 837.7,456.2 837.7,456.2 837.7,456.2 837.7,456.3 837.8,456.3 837.8,456.4 837.8,456.4 837.8,456.4 837.9,456.5 837.9,456.5 838.1,456.6 838.3,456.7 838.6,456.8 839.0,457.0 839.3,457.0 839.4,457.1 839.5,457.1 839.5,457.1 839.6,457.1 839.6,457.2 839.6,457.2 839.7,457.2 839.7,457.3 839.7,457.3 839.8,457.3 839.8,457.4 839.8,457.4 839.8,457.5 839.8,457.5 839.8,457.6 839.8,457.6 839.8,457.7 839.8,457.7 839.8,457.8 839.8,457.8 839.8,457.9 839.7,458.5 839.6,459.2 840.5,459.2 840.7,459.2 840.9,459.3 841.3,459.4 843.2,459.9 843.3,459.9 845.9,460.8 846.4,460.9 846.9,461.0 847.9,461.3 848.4,461.4 848.7,461.4 848.9,461.4 849.0,461.3 849.6,460.5 850.2,459.7 850.5,459.3 850.5,459.3 850.6,459.2 850.6,459.2 850.6,459.1 850.6,459.1 850.7,459.0 850.7,458.9 850.9,458.4 850.9,458.2 850.9,458.2 850.9,458.2 851.0,458.1 851.0,458.1 851.0,458.1 851.0,458.0 851.1,458.0 851.2,457.9 851.4,457.6 851.8,457.2 852.3,456.8 852.3,456.7 852.4,456.7 852.4,456.6 852.5,456.6 852.5,456.5 852.6,456.4 852.6,456.4 852.7,456.3 852.9,456.0 852.9,455.9 853.1,455.6 853.5,454.9 853.7,454.6 854.0,454.1 854.4,453.4 854.6,453.1 854.8,452.8 854.8,452.7 854.9,452.7 854.9,452.6 854.9,452.6 854.9,452.6 854.9,452.5 854.8,452.2 854.8,452.1 854.8,452.0 854.8,452.0 854.8,452.0 854.8,451.9 854.8,451.9 854.7,451.9 854.7,451.8 854.5,451.6 854.5,451.5 854.5,451.5 854.4,451.5 854.4,451.5 854.4,451.4 854.4,451.4 854.4,451.3 854.4,451.3 854.5,451.2 854.5,451.0 854.6,450.9 854.6,450.8 854.6,450.8 854.6,450.7 854.5,450.6 854.5,450.5 854.5,450.4 854.5,450.4 854.5,450.3 854.5,450.3 854.6,450.2 854.6,450.2 854.6,450.0 854.7,449.8 854.7,449.7 854.7,449.6 854.7,449.4 854.7,449.3 854.7,449.2 854.7,449.1 854.7,449.1 854.8,449.0 854.8,449.0 854.8,448.8 854.9,448.8 854.9,448.7 854.9,448.7 854.9,448.7 854.9,448.6 854.8,448.6 854.8,448.6 854.8,448.6 854.8,448.5 854.7,448.4 854.6,448.4 854.6,448.4 854.6,448.3 854.6,448.3 854.6,448.3 854.6,448.3 854.6,448.3 854.6,448.2 854.6,448.2 854.6,448.2 854.6,448.2 854.8,448.0 854.8,448.0 854.8,448.0 854.8,447.9 854.8,447.9 854.8,447.9 854.8,447.9 854.8,447.8 854.8,447.8 854.8,447.8 854.8,447.7 854.8,447.7 854.8,447.7 854.8,447.7 854.8,447.6 854.8,447.6 854.7,447.6 854.7,447.6 854.7,447.5 854.6,447.5 854.6,447.5 854.4,447.4 854.4,447.4 854.4,447.4 854.4,447.4 854.4,447.3 854.4,447.3 854.3,447.3 854.3,447.3 854.3,447.3 854.3,447.2 854.3,447.2 854.4,447.2 854.4,447.2 854.5,447.0 854.6,446.9 854.6,446.9 854.6,446.8 854.6,446.8 854.6,446.8 854.6,446.7 854.6,446.7 854.6,446.7 854.5,446.6 854.5,446.6 854.5,446.6 854.5,446.6 854.4,446.5 854.4,446.5 854.4,446.5 854.4,446.4 854.4,446.4 854.3,446.3 854.3,446.2 854.3,446.0 854.3,445.9 854.3,445.8 854.2,445.7 854.2,445.6 854.2,445.6 854.2,445.5 854.2,445.5 854.2,445.5 854.2,445.5 854.3,445.5 854.3,445.5 854.4,445.3 854.5,445.2 854.6,445.1 854.6,445.1 854.6,445.0 854.8,444.8 854.8,444.7 854.8,444.7 854.9,444.7 854.9,444.7 854.9,444.6 854.9,444.6 854.9,444.6 854.9,444.6 854.9,444.5 854.9,444.5 854.7,444.2 854.7,444.2 854.7,444.1 854.7,444.1 854.7,444.1 854.7,444.0 854.7,443.8 854.7,443.8 854.7,443.7 854.7,443.7 854.6,443.7 854.6,443.6 854.6,443.6 854.5,443.5 854.5,443.5 854.5,443.5 854.5,443.5 854.4,443.4 854.4,443.4 854.4,443.4 854.4,443.4 854.4,443.3 854.4,443.3 854.4,442.9 854.4,442.9 854.4,442.9 854.4,442.8 854.4,442.8 854.4,442.8 854.4,442.7 854.3,442.6 854.0,442.2 854.0,442.2 854.0,442.1 853.9,442.1 853.9,442.0 853.9,441.7 853.9,441.7 853.9,441.7 853.9,441.6 853.9,441.6 853.9,441.6 853.8,441.6 853.8,441.6 853.8,441.5 853.8,441.5 853.7,441.5 853.7,441.5 853.5,441.4 853.5,441.3 853.5,441.3 853.4,441.3 853.4,441.3 853.4,441.2 853.4,441.2 853.3,441.1 853.3,441.1 853.3,441.0 853.3,441.0 853.2,440.9 853.2,440.6 853.1,439.9 853.0,439.6 853.0,439.6 853.0,439.5 853.0,439.5 852.9,439.4 852.9,439.4 852.9,439.3 852.8,439.3 852.6,439.1 852.6,439.0 852.6,439.0 852.6,439.0 852.5,438.9 852.5,438.9 852.5,438.9 852.5,438.8 852.4,438.5 852.4,438.4 852.4,438.4 852.4,438.4 852.4,438.3 852.4,438.3 852.3,438.2 852.3,438.2 852.2,438.1 852.2,438.1 852.1,438.0 852.1,438.0 852.0,438.0 852.0,437.9 852.0,437.9 852.0,437.9 851.9,437.9 851.8,437.7 851.8,437.7 851.8,437.7 851.8,437.6 851.8,437.6 851.6,437.6 851.6,437.5 851.5,437.5 851.4,437.5 851.3,437.4 851.3,437.4 851.3,437.3 851.2,437.3 851.1,437.2 851.1,437.2 851.1,437.1 851.0,437.1 850.9,437.1 850.9,437.0 850.9,437.0 850.9,437.0 850.9,437.0 850.9,437.0 850.8,436.7 850.8,436.7 850.8,436.6 850.8,436.6 850.8,436.6 850.8,436.6 850.8,436.6 850.9,436.5 851.2,436.2 851.3,436.2 851.3,436.1 851.3,436.1 851.3,436.1 851.3,436.1 851.3,436.1 851.3,436.0 851.3,436.0 851.3,436.0 851.2,435.7 851.1,435.5 851.1,435.5 851.1,435.5 851.1,435.4 851.1,435.4 851.1,435.4 851.0,435.4 850.7,435.3 850.7,435.3 850.7,435.3 850.6,435.3 850.6,435.3 850.6,435.2 850.6,435.2 850.6,435.2 850.5,435.2 850.5,435.2 850.5,435.1 850.5,435.1 850.5,435.1 850.5,435.1 850.5,435.1 850.6,435.0 850.6,435.0 850.6,434.9 850.6,434.9 850.6,434.9 850.6,434.9 850.6,434.9 850.5,434.6 850.4,434.5 850.4,434.5 850.4,434.4 850.4,434.3 850.4,434.2 850.4,434.2 850.4,434.2 850.4,434.2 850.4,434.2 850.4,434.2 850.3,434.2 850.2,434.1 850.2,434.1 850.1,434.1 850.1,434.1 850.1,434.0 850.1,434.0 850.0,434.0 850.0,433.9 850.0,433.9 849.9,433.9 849.9,433.7 849.9,433.6 849.9,433.6 849.9,433.6 849.9,433.6 849.9,433.5 849.9,433.5 850.0,433.4 850.0,433.4 850.0,433.4 850.0,433.4 850.0,433.3 850.0,433.3 850.0,433.3 850.0,433.2 849.9,433.0 849.9,433.0 849.9,433.0 849.9,432.9 849.9,432.9 849.9,432.9 849.9,432.9 850.0,432.8 850.0,432.8 850.0,432.8 850.0,432.8 850.0,432.8 850.1,432.7 850.4,432.6 850.4,432.6 850.4,432.6 850.4,432.6 850.4,432.6 850.5,432.5 850.5,432.5 850.5,432.5 850.5,432.5 850.5,432.4 850.5,432.4 850.5,432.4 850.4,432.2 850.4,432.2 850.4,432.2 850.4,432.1 850.4,432.1 850.4,432.1 850.5,432.0 850.5,431.9 850.5,431.9 850.6,431.8 850.6,431.8 850.6,431.8 850.6,431.8 850.7,431.7 850.8,431.7 850.8,431.7 850.8,431.7 850.8,431.6 850.8,431.6 850.8,431.6 850.9,431.6 850.9,431.6 850.9,431.6 850.9,431.5 850.8,431.3 850.8,431.3 850.8,431.2 850.8,431.2 850.8,431.2 850.9,431.1 851.1,431.0 851.5,430.7 851.6,430.7 851.7,430.6 851.9,430.5 852.1,430.4 852.1,430.4 852.1,430.4 852.1,430.4 852.2,430.3 852.3,430.1 852.3,430.1 852.3,430.1 852.3,430.0 852.4,430.0 852.5,429.9 852.5,429.9 852.5,429.9 852.6,429.9 852.6,429.8 852.6,429.8 852.7,429.7 852.7,429.7 852.7,429.7 852.7,429.7 852.7,429.6 852.7,429.5 852.7,429.5 852.7,429.5 852.7,429.5 852.7,429.4 852.7,429.4 852.7,429.4 852.8,429.4 852.8,429.4 852.8,429.4 852.8,429.3 852.9,429.3 853.0,429.3 853.0,429.3 853.0,429.3 853.1,429.3 853.1,429.2 853.2,429.2 853.2,429.2 853.3,429.1 853.3,429.1 853.3,429.1 853.4,429.1 853.4,429.0 853.4,429.0 853.4,429.0 853.5,429.0 853.6,428.9 853.6,428.9 853.6,428.9 853.6,428.9 853.7,428.7 853.7,428.7 853.8,428.7 853.8,428.7 854.0,428.6 854.0,428.6 854.0,428.6 854.0,428.5 854.0,428.5 854.0,428.5 854.0,428.5 854.0,428.5 854.0,428.4 854.0,428.3 854.0,428.3 854.1,428.3 854.1,428.3 854.1,428.2 854.1,428.2 854.1,428.1 854.1,428.1 854.1,428.1 854.1,428.1 854.1,428.0 854.1,428.0 854.1,428.0 854.1,428.0 854.1,428.0 854.1,428.0 854.0,427.9 854.0,427.9 853.9,427.9 853.9,427.9 853.8,427.7 853.8,427.6 853.8,427.6 853.8,427.6 853.9,427.4 853.9,427.4 853.9,427.3 853.9,427.3 853.9,427.3 853.9,427.2 853.9,427.2 853.9,427.1 853.9,427.1 853.9,427.1 853.9,427.0 853.9,427.0 853.9,427.0 853.9,427.0 853.9,426.9 853.9,426.8 853.9,426.8 853.9,426.8 853.9,426.8 853.7,426.7 853.7,426.7 853.7,426.6 853.7,426.6 853.7,426.6 853.7,426.6 853.6,426.5 853.6,426.5 853.7,426.5 853.7,426.5 853.7,426.5 853.7,426.5 853.7,426.4 853.7,426.4 853.9,426.3 853.9,426.3 854.0,426.3 854.0,426.2 854.0,426.2 854.0,426.2 854.0,426.2 854.0,426.2 854.0,426.1 854.0,426.1 854.0,426.1 854.0,426.1 854.0,426.1 854.0,426.0 853.9,426.0 853.9,426.0 853.9,426.0 853.9,426.0 853.8,426.0 853.8,426.0 853.8,426.0 853.8,426.0 853.7,426.0 853.7,426.0 853.7,426.0 853.7,426.0 853.5,426.1 853.5,426.1 853.4,426.1 853.4,426.1 853.4,426.1 853.3,426.1 853.3,426.1 853.3,426.1 853.2,426.1 853.2,426.1 853.2,426.0 853.2,426.0 853.2,426.0 853.1,426.0 853.1,425.9 853.1,425.9 853.1,425.9 853.1,425.9 853.1,425.8 853.1,425.8 853.1,425.7 853.1,425.6 853.1,425.6 853.2,425.5 853.3,425.2 853.5,424.9 853.5,424.9 853.5,424.9 853.5,424.8 853.5,424.8 853.5,424.8 853.5,424.7 853.5,424.7 853.5,424.7 853.5,424.7 853.0,424.0 852.9,423.9 852.9,423.9 852.9,423.9 852.8,423.8 852.8,423.8 852.8,423.7 852.8,423.7 852.8,423.6 852.8,423.4 852.8,423.3 852.8,423.3 852.8,423.2 852.7,422.8 852.6,422.8 852.6,422.7 852.6,422.7 852.6,422.7 852.6,422.6 852.5,422.6 852.5,422.6 852.5,422.6 852.4,422.5 852.2,422.4 852.0,422.4 852.0,422.3 852.0,422.3 851.9,422.3 851.9,422.3 851.8,422.2 851.8,422.2 851.6,421.8 851.6,421.8 851.5,421.8 851.5,421.7 851.4,421.7 851.4,421.7 851.2,421.5 851.1,421.4 851.1,421.4 851.1,421.4 851.0,421.4 851.0,421.3 851.0,421.3 851.0,421.3 851.0,421.2 851.0,421.2 851.0,421.2 851.0,421.1 851.0,421.1 851.0,421.1 851.0,421.0 851.0,421.0 851.0,420.9 851.0,420.9 851.1,420.8 851.1,420.8 851.1,420.7 851.2,420.7 851.2,420.7 851.3,420.6 851.3,420.6 851.5,420.3 851.6,420.3 851.6,420.3 851.6,420.3 851.6,420.3 851.6,420.3 851.6,420.2 851.6,420.2 851.5,420.2 851.5,420.2 851.5,420.2 851.5,420.2 851.5,420.2 851.5,420.2 851.4,420.2 851.4,420.2 851.4,420.2 851.4,420.2 851.4,420.2 851.3,420.3 851.0,420.5 850.9,420.5 850.9,420.5 850.8,420.6 850.8,420.6 850.8,420.6 850.7,420.6 850.7,420.6 850.7,420.6 850.7,420.6 850.6,420.6 850.6,420.6 850.6,420.5 850.6,420.5 850.6,420.5 850.5,420.5 850.5,420.5 850.5,420.5 850.5,420.4 850.4,420.2 850.4,420.1 850.3,420.0 850.3,419.9 850.3,419.9 850.2,419.8 850.2,419.7 850.1,419.4 850.1,419.3 850.1,419.3 850.0,419.2 850.0,419.1 849.9,419.1 849.7,418.7 849.3,418.1 849.3,418.0 849.2,417.9 849.2,417.9 849.2,417.9 849.1,417.8 849.0,417.7 848.9,417.6 848.9,417.6 848.8,417.6 848.8,417.5 848.7,417.4 848.6,417.2 848.5,417.1 848.5,417.0 848.5,417.0 848.4,416.9 848.4,416.9 848.4,416.8 848.4,416.5 848.4,416.4 848.4,416.4 848.3,416.4 848.3,416.3 848.3,416.3 848.3,416.3 848.3,416.2 848.2,416.2 848.2,416.2 847.8,415.9 847.8,415.8 847.7,415.8 847.7,415.8 847.7,415.7 847.7,415.7 847.6,415.6 847.6,415.6 847.6,415.6 847.6,415.5 847.5,415.0 847.5,414.8 847.5,414.7 847.5,414.7 847.5,414.6 847.5,414.6 847.5,414.3 847.5,414.2 847.5,414.2 847.5,414.1 847.5,414.1 847.5,414.0 847.5,414.0 847.4,413.8 847.4,413.7 847.4,413.6 847.4,413.6 847.4,413.5 847.4,413.1 847.3,412.8 847.3,412.7 847.3,412.7 847.4,412.7 847.4,412.6 847.4,412.6 847.4,412.5 847.4,412.5 847.5,412.2 847.6,412.1 847.6,412.0 847.6,412.0 847.6,411.8 847.7,411.0 847.7,410.7 847.7,410.6 847.7,410.6 847.7,410.6 847.7,410.5 847.7,410.5 847.7,410.5 847.7,410.4 847.7,410.4 847.4,410.1 847.3,409.9 847.3,409.9 847.3,409.9 847.3,409.8 847.3,409.8 847.3,409.8 847.3,409.7 847.3,409.6 847.3,409.6 847.6,408.9 847.6,408.8 848.0,407.6 848.3,406.8 848.3,406.7 848.4,406.6 848.4,406.5 848.4,406.2 848.4,406.1 848.5,406.0 848.5,405.9 848.5,405.8 848.8,404.8 849.0,404.2 849.1,403.8 849.2,403.7 849.3,403.4 849.3,403.3 849.4,403.2 849.4,403.1 849.6,402.7 849.7,402.5 849.7,402.4 849.8,402.4 849.8,402.3 849.8,402.3 849.8,402.3 849.8,402.2 849.7,401.6 849.7,401.4 849.6,401.2 849.6,401.2 849.6,401.1 849.6,401.1 849.6,401.0 849.7,401.0 849.7,400.9 849.7,400.8 850.2,400.0 850.3,399.7 850.4,399.7 850.4,399.7 850.4,399.6 850.4,399.6 850.4,399.6 850.4,399.5 850.4,399.5 850.3,399.0 850.3,399.0 850.3,398.9 850.3,398.9 850.3,398.8 850.3,398.8 850.4,398.6 850.4,398.5 850.4,398.4 850.4,398.4 850.4,397.1 850.4,397.1 850.4,397.0 850.5,397.0 850.5,396.9 850.8,396.5 851.0,396.1 851.0,396.1 851.0,396.0 851.0,396.0 851.0,395.9 851.1,395.9 851.1,395.8 851.1,395.7 851.0,395.7 851.0,395.6 851.0,395.6 851.0,395.5 851.0,395.5 850.9,395.3 850.9,395.2 850.9,395.2 850.9,395.1 850.9,395.1 850.9,395.0 850.9,395.0 850.9,394.8 851.0,394.6 851.0,394.5 851.2,394.4 851.7,394.4 851.9,394.3 852.6,394.2 853.4,394.1 854.6,394.0 856.3,393.8 856.9,393.8 857.2,393.7 857.5,393.7 857.6,393.7 857.7,393.7 859.9,393.4 861.1,393.3 861.2,393.3 861.3,393.3 861.4,393.3 861.5,393.3 861.6,393.3 861.8,393.3 863.0,393.4 864.2,393.4 864.3,393.4 864.4,393.4 864.5,393.4 864.6,393.4 864.7,393.4 865.1,393.4 866.1,393.3 866.2,393.3 866.2,393.3 866.3,393.3 866.3,393.3 866.6,393.3 867.6,393.4 868.4,393.5 869.0,393.5 869.0,393.5 869.1,393.5 869.1,393.5 869.1,393.5 869.2,393.5 869.2,393.6 869.4,393.6 869.7,393.7 869.9,393.7 869.9,393.7 870.0,393.7 870.1,393.7 870.2,393.7 870.3,393.7 870.3,393.7 870.9,393.6 871.0,393.5 871.7,393.4 871.8,393.4 871.8,393.3 871.9,393.3 872.0,393.3 872.0,393.3 872.1,393.3 872.2,393.3 872.3,393.3 872.3,393.3 872.4,393.4 872.5,393.4 872.6,393.4 875.1,394.4 875.3,394.4 875.4,394.5 875.6,394.5 875.7,394.6 875.9,394.7 876.4,395.0 876.8,395.2 877.7,395.8 877.7,395.8 877.8,395.8 877.9,395.9 878.0,395.9 878.1,396.0 878.1,396.0 878.2,396.0 878.7,396.2 878.8,396.2 878.9,396.3 878.9,396.3 879.0,396.3 879.1,396.3 879.2,396.3 879.3,396.4 879.4,396.4 879.5,396.4 879.6,396.4 879.7,396.4 879.8,396.4 879.9,396.6 880.4,396.7 880.5,396.8 880.6,396.8 880.6,396.8 880.7,396.8 881.1,397.1 881.2,397.2 881.3,397.2 881.3,397.3 881.4,397.3 881.4,397.3 881.6,397.4 882.3,397.6 882.5,397.7 882.8,397.8 883.2,398.0 883.8,398.2 884.6,398.5 885.1,398.7 886.2,399.2 886.4,399.3 886.8,399.4 887.3,399.6 888.2,400.0 889.0,400.4 890.1,400.8 890.3,400.9 891.0,401.2 891.5,401.4 891.6,401.4 891.7,401.5 891.7,401.5 891.8,401.5 891.9,401.5 891.9,401.5 891.9,401.5 892.0,401.5 892.0,401.5 892.1,401.5 892.1,401.5 892.3,401.5 892.6,401.5 893.8,401.5 893.9,401.5 893.9,401.5 893.9,401.5 894.0,401.5 894.0,401.5 894.0,401.5 894.1,401.5 894.3,401.5 894.7,401.6 894.8,401.6 894.9,401.6 895.5,401.7 896.0,401.8 896.4,401.9 896.9,402.0 897.3,402.1 897.6,402.1 897.8,402.2 898.1,402.2 899.2,402.5 899.7,402.6 900.3,402.7 901.2,402.8 902.2,403.0 902.3,403.1 902.4,403.1 902.5,403.1 902.5,403.1 902.6,403.1 903.3,403.1 903.5,403.1 903.6,403.1 903.6,403.1 903.7,403.2 903.7,403.2 903.7,403.2 903.8,403.2 903.8,403.2 903.9,403.2 904.3,403.4 904.3,403.4 904.6,403.6 904.9,403.7 905.0,403.7 905.0,403.8 905.0,403.8 905.1,403.8 905.1,403.8 905.2,403.8 905.2,403.8 905.2,403.8 905.3,403.8 905.3,403.8 905.3,403.8 905.4,403.8 905.4,403.8 905.5,403.8 905.5,403.8 905.6,403.8 905.8,403.7 905.9,403.7 905.9,403.7 905.9,403.7 906.0,403.7 906.0,403.7 906.0,403.7 906.1,403.7 906.2,403.7 906.4,403.8 906.5,403.8 906.6,403.8 906.6,403.8 906.7,403.8 906.8,403.8 906.8,403.8 906.8,403.8 906.9,403.8 906.9,403.8 907.0,403.8 907.3,403.8 907.4,403.7 907.5,403.7 907.6,403.7 907.7,403.7 907.8,403.7 907.9,403.7 908.0,403.7 908.0,403.7 908.1,403.7 908.1,403.7 908.5,403.7 909.1,403.8 909.4,403.8 909.7,403.8 909.7,403.8 910.4,403.8 910.4,403.8 910.5,403.8 910.6,403.9 910.9,403.9 911.4,404.0 911.7,404.1 912.0,404.1 912.6,404.3 913.3,404.4 913.5,404.5 913.7,404.5 913.8,404.5 914.0,404.5 914.4,404.6 915.1,404.7 916.1,404.9 916.9,405.0 917.4,405.1 917.5,405.1 917.6,405.1 917.7,405.1 917.8,405.1 918.0,405.2 919.0,405.5 919.7,405.6 920.4,405.8 920.8,405.9 920.9,405.9 920.9,406.0 921.0,406.0 921.0,406.0 921.0,406.0 921.0,406.0 921.1,406.0 921.1,405.9 921.7,405.9 921.9,405.9 922.0,405.9 922.0,405.9 922.0,405.9 922.1,405.9 922.1,405.9 922.2,405.9 922.5,406.0 922.9,406.1 923.0,406.2 923.3,406.3 923.5,406.4 923.6,406.4 923.6,406.4 923.7,406.4 923.7,406.4 923.8,406.5 925.7,406.7 926.3,406.8 926.8,406.9 926.9,406.9 927.1,406.9 927.2,406.9 927.3,407.0 927.4,407.0 927.5,407.0 927.6,407.0 927.6,407.1 927.8,407.1 928.0,407.2 928.0,407.2 928.3,407.3 928.5,407.3 928.7,407.4 928.7,407.4 929.1,407.5 929.1,407.6 929.2,407.6 929.3,407.6 929.4,407.6 929.5,407.6 929.5,407.7 929.6,407.7 929.7,407.7 930.0,407.8 930.1,407.8 930.2,407.8 930.2,407.8 930.3,407.9 930.4,407.9 930.4,407.9 930.5,407.9 930.5,408.0 930.5,408.0 930.6,408.0 930.6,408.1 930.9,408.4 930.9,408.4 931.0,408.4 931.0,408.4 931.0,408.5 931.1,408.5 931.1,408.5 931.2,408.5 931.2,408.5 931.3,408.5 931.3,408.6 931.4,408.6 931.4,408.6 931.5,408.6 931.6,408.6 931.7,408.6 932.2,408.5 933.1,408.5 934.2,408.4 934.2,408.4 934.4,408.4 934.6,408.4 934.6,408.5 934.8,408.5 935.4,408.6 936.7,408.8 936.8,408.8 936.9,408.8 936.9,408.8 937.0,408.8 937.1,408.8 937.3,408.8 937.5,408.8 937.5,408.8 937.6,408.8 937.6,408.8 937.7,408.8 937.7,408.8 937.8,408.8 937.8,408.7 937.9,408.7 938.0,408.7 938.2,408.6 938.4,408.6 938.5,408.6 938.6,408.6 938.7,408.5 938.7,408.5 938.8,408.5 938.9,408.5 938.9,408.5 939.0,408.5 939.8,408.5 940.7,408.4 940.8,408.4 941.0,408.4 941.1,408.4 941.2,408.4 941.2,408.4 941.3,408.4 941.4,408.4 941.5,408.4 941.8,408.4 942.2,408.5 942.2,408.5 942.3,408.5 942.3,408.5 942.3,408.5 942.4,408.5 942.4,408.5 942.4,408.4 942.5,408.4 942.5,408.4 942.9,408.3 943.0,408.3 943.2,408.2 943.3,408.2 943.4,408.2 943.5,408.1 943.6,408.1 943.7,408.1 943.8,408.1 944.0,408.0 944.1,408.0 944.4,408.0 944.7,408.0 944.8,408.0 944.8,408.0 944.9,407.9 944.9,407.9 945.0,407.9 945.0,407.9 945.5,407.8 945.6,407.7 945.7,407.7 945.8,407.7 945.9,407.7 946.0,407.6 946.4,407.6 947.1,407.5 947.2,407.4 947.3,407.4 947.4,407.4 947.5,407.4 947.6,407.4 948.3,407.3 948.8,407.3 949.1,407.2 949.2,407.2 949.3,407.2 949.4,407.2 949.5,407.2 949.6,407.2 949.7,407.2 949.8,407.2 949.9,407.2 950.0,407.3 950.1,407.3 950.2,407.3 950.3,407.3 950.4,407.3 950.5,407.3 950.6,407.4 950.7,407.4 950.9,407.4 951.0,407.5 951.2,407.5 951.5,407.6 952.5,407.9 953.3,408.2 953.8,408.4 954.0,408.4 954.1,408.5 954.1,408.5 954.2,408.5 954.2,408.5 954.3,408.5 954.4,408.5 954.4,408.5 954.5,408.5 954.6,408.5 954.7,408.5 954.7,408.5 954.9,408.5 955.3,408.4 955.7,408.3 956.0,408.3 956.9,408.1 956.9,408.1 957.0,408.1 957.1,408.1 957.2,408.1 957.3,408.1 957.4,408.1 957.4,408.1 957.5,408.1 957.8,408.1 958.7,408.1 958.8,408.1 958.9,408.1 959.0,408.1 959.1,408.1 959.1,408.1 959.2,408.1 959.6,408.0 959.7,408.0 959.8,408.0 959.9,408.0 959.9,408.0 960.0,408.0 960.0,408.1 960.4,408.1 960.4,408.1 960.5,408.2 960.6,408.2 960.7,408.2 960.8,408.2 960.9,408.2 961.0,408.2 961.2,408.2 961.2,408.2 961.3,408.2 961.4,408.2 961.5,408.2 961.6,408.2 961.9,408.1 962.0,408.1 962.0,408.1 962.1,408.0 962.2,408.0 962.3,408.0 962.4,408.0 962.5,408.0 962.5,408.0 962.6,408.0 962.7,408.0 962.8,408.0 962.9,408.0 962.9,408.0 963.3,408.1 964.1,408.2 964.2,408.2 964.3,408.2 964.3,408.2 964.4,408.2 964.5,408.2 964.5,408.3 964.6,408.3 964.7,408.3 964.7,408.3 965.2,408.4 965.4,408.4 965.4,408.4 965.5,408.4 965.5,408.4 966.9,408.4 968.5,408.4 974.7,408.2 975.4,408.2 975.8,408.2 976.2,408.2 976.4,408.1 976.6,408.1 977.1,408.1 979.0,407.8 979.7,407.7 979.9,407.7 980.2,407.6 980.4,407.6 980.6,407.6 980.7,407.5 980.9,407.5 981.0,407.5 981.1,407.4 981.1,407.4 981.3,407.4 981.4,407.4 981.5,407.3 981.6,407.3 981.7,407.3 981.8,407.2 982.0,407.1 982.2,407.1 982.8,406.9 983.4,406.6 983.5,406.6 983.5,406.6 983.6,406.6 983.6,406.6 983.7,406.6 983.8,406.5 984.0,406.5 984.7,406.4 985.6,406.3 986.4,406.3 986.5,406.2 986.6,406.2 986.7,406.2 986.8,406.2 987.2,406.1 987.6,406.1 987.7,406.0 987.9,406.0 988.0,406.0 988.2,406.0 988.3,405.9 988.7,405.9 990.7,405.7 992.9,405.4 995.2,405.2 997.4,405.0 998.7,404.8 1001.3,404.6 1003.1,404.4 1003.2,404.4 1004.3,404.3 1004.7,404.3 1004.8,404.3 1005.3,404.2 1007.5,404.0 1008.5,404.0 1010.3,403.8 1011.8,403.7 1012.1,403.6 1012.5,403.6 1012.5,403.6 1012.6,403.6 1012.7,403.6 1012.8,403.6 1013.4,403.6 1013.6,403.5 1013.7,403.5 1013.9,403.5 1014.0,403.5 1014.2,403.5 1014.3,403.4 1014.5,403.4 1014.7,403.3 1014.9,403.3 1015.1,403.3 1015.3,403.2 1015.5,403.2 1015.7,403.1 1015.9,403.1 1016.0,403.0 1016.1,403.0 1016.5,402.8 1017.0,402.7 1017.1,402.6 1017.2,402.6 1017.3,402.6 1017.4,402.6 1017.5,402.5 1017.5,402.5 1017.6,402.5 1017.6,402.5 1017.7,402.5 1017.8,402.5 1017.9,402.5 1018.0,402.5 1018.2,402.5 1018.3,402.5 1018.4,402.4 1018.6,402.4 1018.7,402.4 1019.3,402.3 1020.0,402.2 1020.1,402.1 1020.2,402.1 1020.3,402.1 1020.4,402.1 1020.5,402.1 1020.6,402.1 1021.3,402.0 1021.8,401.9 1021.9,401.9 1021.9,401.9 1022.0,401.9 1022.0,401.9 1022.1,401.9 1022.1,401.9 1024.1,402.2 1025.5,402.4 1025.6,402.5 1025.6,402.5 1025.7,402.5 1025.7,402.5 1026.5,402.7 1027.5,403.0 1028.6,403.4 1029.3,403.6 1029.3,403.6 1029.4,403.7 1029.5,403.7 1029.5,403.7 1029.6,403.7 1029.6,403.8 1029.7,403.8 1029.7,403.8 1029.8,403.9 1029.8,403.9 1029.8,403.9 1029.9,403.9 1030.2,404.3 1030.3,404.4 1030.3,404.4 1030.5,404.7 1030.6,404.7 1030.6,404.8 1030.6,404.8 1030.7,404.8 1030.7,404.8 1030.7,404.8 1030.8,404.8 1030.8,404.9 1030.9,404.9 1030.9,404.9 1031.0,404.9 1031.0,404.9 1031.0,404.9 1031.1,404.9 1031.1,404.9 1031.1,404.9 1031.2,404.9 1031.3,404.9 1031.7,404.8 1031.9,404.8 1032.0,404.8 1032.2,404.7 1032.3,404.7 1033.0,404.7 1033.6,404.6 1033.6,404.6 1033.7,404.6 1033.7,404.6 1033.8,404.6 1033.9,404.6 1033.9,404.6 1034.1,404.5 1034.9,404.2 1035.0,404.2 1035.0,404.1 1035.1,404.1 1035.1,404.1 1035.2,404.1 1035.3,404.0 1035.4,404.0 1035.6,404.0 1035.7,404.0 1035.8,403.9 1035.9,403.9 1036.0,403.9 1036.1,403.9 1036.5,403.8 1037.5,403.7 1038.1,403.7 1038.2,403.7 1038.3,403.7 1038.4,403.7 1038.6,403.7 1038.7,403.7 1038.8,403.7 1038.8,403.7 1038.9,403.7 1038.9,403.7 1039.0,403.7 1039.1,403.7 1039.2,403.8 1039.7,404.0 1040.6,404.2 1041.5,404.5 1042.2,404.8 1042.3,404.8 1042.4,404.9 1042.6,404.9 1042.7,404.9 1042.8,404.9 1042.9,405.0 1043.0,405.0 1043.4,405.1 1044.3,405.2 1045.8,405.5 1046.3,405.6 1046.4,405.6 1046.5,405.6 1046.7,405.6 1046.8,405.6 1046.9,405.7 1047.0,405.7 1047.1,405.7 1047.2,405.7 1047.4,405.7 1049.0,405.7 1051.3,405.8 1052.3,405.8 1052.6,405.8 1053.0,405.8 1053.3,405.8 1053.5,405.8 1053.8,405.8 1054.0,405.8 1054.2,405.7 1054.7,405.7 1055.2,405.7 1056.8,405.6 1056.9,405.6 1057.1,405.6 1057.2,405.6 1057.4,405.6 1057.5,405.6 1057.6,405.6 1058.4,405.5 1058.5,405.5 1058.7,405.5 1059.1,405.4 1059.6,405.4 1061.3,405.2 1061.4,405.2 1061.6,405.2 1061.8,405.1 1062.0,405.1 1062.1,405.1 1062.3,405.1 1062.7,405.0 1062.8,404.9 1063.0,404.9 1063.1,404.9 1063.2,404.9 1063.4,404.8 1063.5,404.8 1063.6,404.7 1063.7,404.7 1063.8,404.7 1063.8,404.7 1063.9,404.6 1064.9,404.3 1065.9,403.9 1065.9,403.9 1066.0,403.8 1066.1,403.8 1066.2,403.8 1066.4,403.7 1066.5,403.7 1066.8,403.6 1068.6,403.2 1068.8,403.2 1068.9,403.2 1069.0,403.1 1069.2,403.1 1069.3,403.1 1069.5,403.1 1069.6,403.0 1069.7,403.0 1069.9,403.0 1070.0,403.0 1070.1,403.0 1070.2,403.0 1070.4,403.0 1070.5,403.0 1070.7,403.0 1070.8,403.0 1070.9,403.0 1071.0,403.0 1071.2,403.0 1071.3,403.0 1071.5,403.0 1071.6,403.0 1072.6,403.2 1074.3,403.4 1074.4,403.4 1074.4,403.4 1075.1,403.5 1076.6,403.6 1077.7,403.8 1078.2,403.8 1078.3,403.8 1078.4,403.9 1078.5,403.9 1078.6,403.9 1078.6,403.9 1078.7,403.9 1079.0,404.0 1079.2,404.1 1079.3,404.1 1079.4,404.1 1079.5,404.1 1079.6,404.2 1079.9,404.2 1080.7,404.3 1080.8,404.3 1080.8,404.3 1080.9,404.3 1081.0,404.4 1081.0,404.4 1081.1,404.4 1081.1,404.4 1081.2,404.5 1081.2,404.5 1081.2,404.5 1081.4,404.6 1081.5,404.7 1081.5,404.7 1081.6,404.8 1081.7,404.8 1081.7,404.9 1081.8,404.9 1082.5,405.2 1082.5,405.2 1082.5,405.2 1082.6,405.3 1082.6,405.3 1082.7,405.3 1082.9,405.3 1083.2,405.4 1083.2,405.4 1083.3,405.4 1083.3,405.4 1083.3,405.4 1083.4,405.5 1083.5,405.5 1083.6,405.6 1083.7,405.6 1083.7,405.6 1083.8,405.7 1083.9,405.7 1084.1,405.9 1084.2,405.9 1084.2,405.9 1084.3,406.0 1084.4,406.0 1084.4,406.0 1084.4,406.0 1084.5,406.1 1084.6,406.1 1085.0,406.2 1085.2,406.2 1085.4,406.3 1085.5,406.3 1085.6,406.3 1085.7,406.4 1085.8,406.4 1085.9,406.4 1086.0,406.4 1086.1,406.5 1086.1,406.5 1086.2,406.5 1086.2,406.5 1086.2,406.6 1086.3,406.6 1086.3,406.6 1086.4,406.6 1086.4,406.7 1086.5,406.7 1086.8,406.8 1086.8,406.8 1086.9,406.8 1086.9,406.8 1087.0,406.9 1087.0,406.9 1087.0,406.9 1087.2,407.1 1087.4,407.2 1087.4,407.3 1087.5,407.3 1087.5,407.3 1087.5,407.3 1087.5,407.3 1087.6,407.3 1087.6,407.3 1088.1,407.4 1088.3,407.5 1088.3,407.5 1088.3,407.5 1088.4,407.5 1088.4,407.5 1088.4,407.5 1088.4,407.5 1088.8,407.8 1089.0,408.0 1089.0,408.0 1089.0,408.0 1089.1,408.0 1089.1,408.1 1089.1,408.1 1089.2,408.1 1089.2,408.1 1089.3,408.1 1089.3,408.1 1090.5,408.4 1090.8,408.5 1091.3,408.6 1091.9,408.7 1092.0,408.7 1092.1,408.7 1092.2,408.7 1092.4,408.8 1092.6,408.9 1092.8,408.9 1093.0,409.0 1093.1,409.0 1093.3,409.1 1093.5,409.2 1094.4,409.5 1094.6,409.6 1094.7,409.6 1094.8,409.6 1094.8,409.6 1094.9,409.7 1095.0,409.7 1095.0,409.7 1095.1,409.7 1095.2,409.7 1095.2,409.7 1095.3,409.7 1095.3,409.7 1095.4,409.7 1095.4,409.7 1095.5,409.7 1095.5,409.7 1095.6,409.7 1095.9,409.6 1095.9,409.6 1096.0,409.6 1096.1,409.6 1096.2,409.6 1096.3,409.6 1096.4,409.6 1096.5,409.6 1096.8,409.6 1098.0,409.8 1098.9,409.9 1099.5,409.9 1099.6,409.9 1099.7,410.0 1099.8,410.0 1099.9,410.0 1100.0,410.0 1100.1,410.0 1100.4,410.1 1101.7,410.4 1101.8,410.5 1101.9,410.5 1102.3,410.6 1103.1,410.8 1104.1,411.1 1104.2,411.1 1104.3,411.1 1104.4,411.2 1104.6,411.2 1105.7,411.4 1108.0,411.8 1108.1,411.8 1108.3,411.8 1108.4,411.8 1108.6,411.8 1108.7,411.9 1108.9,411.9 1109.9,412.0 1110.1,412.0 1110.3,412.0 1110.4,412.0 1110.6,412.1 1110.8,412.1 1110.9,412.1 1111.9,412.3 1113.8,412.5 1114.5,412.6" fill="none" stroke="#53663e" stroke-width="8" stroke-linecap="round" stroke-linejoin="round"/>
<polyline points="243.5,349.1 243.4,349.2 243.4,349.2 243.1,349.1 242.6,349.1 242.6,349.1 242.6,349.1 241.0,348.9 240.4,348.8 240.2,348.8 240.2,348.6 240.4,348.0 240.4,348.0 240.6,347.5 240.6,347.4 240.7,347.2 240.8,347.1 240.8,347.0 240.9,346.8 240.9,346.8 241.1,346.6 241.3,346.2 241.8,345.7 242.4,345.2 243.9,343.7 244.0,343.7 244.1,343.6 244.2,343.4 244.3,343.3 244.4,343.3 244.7,342.8 245.0,342.4 245.0,342.3 245.2,342.1 245.6,341.5 245.6,341.4 245.7,341.4 245.7,341.3 246.1,340.8 246.1,340.8 246.3,340.5 246.4,340.4 247.1,339.4 247.3,338.9 247.6,338.3 247.6,338.3 247.6,338.2 247.6,338.2 248.1,337.5 248.1,337.5 248.4,337.0 248.5,336.9 248.5,336.8 248.5,336.8 247.2,336.3 245.9,335.8 245.3,335.5 245.1,335.5 245.0,335.4 244.6,335.4 244.5,335.4 243.7,335.2 243.0,335.1 242.5,335.0 242.1,334.9 242.1,334.8 241.8,334.7 241.4,334.6 240.9,334.4 240.4,334.2 240.0,334.1 239.9,334.1 239.8,334.0 239.7,334.0 239.5,333.8 239.0,333.5 238.4,333.0 238.2,332.8 237.9,332.6 237.6,332.5 237.1,332.2 237.0,332.1 236.4,331.8 235.9,331.5 235.6,331.4 235.1,331.1 234.7,330.9 234.5,330.9 234.4,330.8 234.1,330.7 233.3,330.5 233.2,330.5 232.8,330.4 231.9,330.2 229.8,329.6 229.4,329.5 229.1,329.4 229.1,329.4 229.0,329.4 228.5,329.2 228.4,329.2 228.3,329.2 228.3,329.1 228.2,329.1 228.2,329.1 228.1,329.0 228.0,328.9 228.0,328.9 228.0,328.9 227.9,328.9 227.9,328.9 227.9,328.9 227.8,328.9 227.8,328.9 227.8,328.9 227.7,329.0 227.4,329.1 227.3,329.2 227.2,329.3 227.1,329.3 227.1,329.3 227.0,329.3 226.5,329.3 226.0,329.4 225.8,329.4 224.0,329.5 222.4,329.6 221.8,329.7 221.7,329.7 221.7,329.7 213.6,330.2 212.4,330.4 208.9,331.3 208.7,331.3 208.3,331.4 207.9,331.4 206.8,331.5 206.8,331.5 205.6,331.6 205.4,331.6 205.1,331.6 204.9,331.7 204.6,331.7 204.4,331.7 204.1,331.7 203.6,331.7 203.2,331.8 201.9,331.9 194.9,332.3 193.6,332.4 191.7,332.3 191.6,332.3 188.3,332.0 188.1,332.0 187.9,332.0 187.4,332.0 187.1,331.9 187.1,331.9 186.8,331.9 184.2,331.7 183.8,331.7 183.5,331.7 183.3,331.6 183.1,331.6 183.0,331.5 182.9,331.5 182.6,331.4 180.1,330.3 179.8,330.2 179.2,329.9 178.7,329.7 178.3,329.5 176.8,328.9 176.7,328.9 176.6,328.8 176.5,328.8 175.8,328.6 175.7,328.6 175.6,328.5 173.3,327.9 173.0,327.8 172.7,327.6 170.0,326.7 168.5,326.1 165.9,325.1 164.7,324.7 163.0,324.0 161.5,323.5 161.3,323.4 161.1,323.3 161.0,323.3 160.9,323.3 160.8,323.3 160.6,323.2 160.4,323.2 159.6,323.2 158.5,323.2 158.1,323.1 158.0,323.1 157.1,323.1 156.8,323.1 156.0,323.1 154.4,323.0 153.0,322.9 152.1,322.9 151.9,322.9 151.8,322.9 151.7,322.8 151.6,322.8 151.5,322.8 151.3,322.7 151.1,322.7 150.8,322.6 150.1,322.3 149.5,322.1 149.2,322.0 148.4,321.7 147.3,321.3 147.2,321.3 147.2,321.3 145.6,320.7 144.7,320.4 144.5,320.3 144.3,320.3 144.1,320.2 143.9,320.2 142.5,320.0 140.9,319.8 140.7,319.8 140.5,319.8 140.4,319.7 140.2,319.7 140.0,319.6 139.9,319.6 139.7,319.5 139.4,319.3 139.0,319.1 137.8,318.4 137.7,318.4 137.6,318.3 137.2,318.1 136.0,317.7 135.5,317.5 134.8,317.2 134.2,316.9 132.3,316.2 131.0,315.7 130.8,315.6 130.7,315.6 130.5,315.5 130.4,315.5 129.1,315.4 128.4,315.4 127.9,315.3 126.8,315.2 126.7,315.2 126.4,315.2 126.2,315.2 126.1,315.1 125.9,315.1 125.8,315.1 125.7,315.0 125.6,315.0 125.4,315.0 125.3,314.9 124.2,314.4 123.3,314.1 123.0,313.9 122.3,313.6 122.2,313.6 122.1,313.5 122.0,313.4 121.8,313.3 120.9,312.6 119.8,311.5 119.7,311.4 119.5,311.3 119.2,311.0 118.6,310.5 118.3,310.2 117.8,309.8 117.8,309.8 117.6,309.5 117.4,309.3 117.0,308.5 116.9,308.0 116.6,307.5 116.4,306.9 116.3,306.8 116.0,306.0 116.0,305.9 115.9,305.7 115.7,305.2 115.6,304.8 115.3,304.1 115.1,303.6 115.0,303.5 114.9,303.3 114.8,303.1 113.2,300.7 112.4,299.5 111.3,297.9 110.3,296.3 110.2,296.2 109.9,295.7 109.6,295.3 107.9,293.5 106.6,291.9 105.6,290.8 105.2,290.4 104.6,289.8 103.7,289.1 103.6,288.9 102.9,288.3 101.8,287.3 101.6,287.2 101.3,286.9 101.0,286.6 100.9,286.5 98.7,284.2 95.7,281.0 95.6,280.9 95.5,280.8 95.5,280.6 95.4,280.1 95.1,278.5 94.9,277.7 94.8,277.5 93.9,275.8 93.8,275.6 93.8,275.5 93.7,275.4 93.6,275.3 93.4,275.1 91.3,273.7 89.7,272.4 88.9,271.8 88.6,271.5 88.5,271.4 88.4,271.3 88.4,271.3 88.3,271.2 88.3,271.1 88.0,270.7 87.6,270.1 87.5,269.9 87.3,269.7 87.3,269.6 87.2,269.5 86.7,268.8 85.9,267.5 85.5,266.8 85.3,266.6 85.1,266.3 85.0,266.1 85.0,266.1 84.9,266.0 84.8,265.9 84.8,265.8 84.1,264.6 84.0,264.6 84.0,264.5 84.0,263.4 84.0,263.1 84.0,263.0 84.2,262.8 84.4,262.2 84.7,261.4 85.5,259.4 85.5,259.3 85.6,259.2 85.7,259.0 85.7,258.8 85.7,258.8 86.0,258.0 86.8,256.1 86.8,255.9 87.1,255.3 87.1,255.1 87.2,255.0 87.2,255.0 87.4,252.7 87.6,251.5 87.9,248.9 87.9,248.3 88.0,248.1 88.2,245.9 88.4,244.1 88.5,243.2 88.6,242.5 88.8,240.6 89.0,239.3 89.0,239.1 89.0,238.9 89.1,233.4 89.1,233.3 89.2,233.2 89.2,233.1 90.1,231.4 90.2,231.3 91.6,229.4 91.7,229.3 91.7,229.2 92.6,227.0 92.9,226.2 92.9,226.1 93.0,226.0 93.0,225.8 93.0,225.8 94.1,225.8 94.1,226.0" fill="none" stroke="#a9802f" stroke-width="8" stroke-linecap="round" stroke-linejoin="round" stroke-dasharray="12 10"/>
<circle cx="243.4" cy="349.1" r="9" fill="#222a20" stroke="#e9e5d9" stroke-width="4"/>
<text x="257.4" y="335.1" font-family="IBM Plex Mono, monospace" font-size="22" font-weight="600" fill="#222a20">伊宁</text>
<circle cx="93.9" cy="226.0" r="9" fill="#222a20" stroke="#e9e5d9" stroke-width="4"/>
<text x="107.9" y="212.0" font-family="IBM Plex Mono, monospace" font-size="22" font-weight="600" fill="#222a20">大西沟</text>
<circle cx="1116.0" cy="405.0" r="9" fill="#222a20" stroke="#e9e5d9" stroke-width="4"/>
<text x="1130.0" y="391.0" font-family="IBM Plex Mono, monospace" font-size="22" font-weight="600" fill="#222a20">唐布拉</text>
<circle cx="599.0" cy="494.2" r="9" fill="#87927f" stroke="#e9e5d9" stroke-width="4"/>
<text x="613.0" y="480.2" font-family="IBM Plex Mono, monospace" font-size="22" font-weight="600" fill="#222a20">库尔德宁备用</text>
<text x="44" y="666" font-family="IBM Plex Mono, monospace" font-size="17" fill="#596055">Route geometry: OpenStreetMap contributors via OSRM</text>
</svg>