<svg xmlns="http://www.w3.org/2000/svg" width="1200" height="630" viewBox="0 0 1200 630">
  <rect width="1200" height="630" fill="#121610"/>
  <g stroke="#b7cb91" stroke-opacity=".08">
    <path d="M0 70H1200M0 140H1200M0 210H1200M0 280H1200M0 350H1200M0 420H1200M0 490H1200M0 560H1200"/>
    <path d="M70 0V630M140 0V630M210 0V630M280 0V630M350 0V630M420 0V630M490 0V630M560 0V630M630 0V630M700 0V630M770 0V630M840 0V630M910 0V630M980 0V630M1050 0V630M1120 0V630"/>
  </g>
  <text x="76" y="84" fill="#87927f" font-family="IBM Plex Mono, monospace" font-size="20" font-weight="600" letter-spacing="2">AUCKLAND / NEW ZEALAND</text>
  <text x="76" y="270" fill="#b7cb91" font-family="IBM Plex Mono, monospace" font-size="86" font-weight="600">&gt;</text>
  <text x="154" y="270" fill="#e7ecdf" font-family="IBM Plex Mono, monospace" font-size="86" font-weight="600" letter-spacing="-6">Shun Lyu</text>
  <text x="76" y="342" fill="#87927f" font-family="IBM Plex Sans, sans-serif" font-size="30">Software engineer working across cloud infrastructure,</text>
  <text x="76" y="386" fill="#87927f" font-family="IBM Plex Sans, sans-serif" font-size="30">developer tooling, Linux, Android, and embedded systems.</text>
  <line x1="76" y1="492" x2="1124" y2="492" stroke="#354032"/>
  <text x="76" y="548" fill="#b7cb91" font-family="IBM Plex Mono, monospace" font-size="20">reliability · automation · developer tooling</text>
  <text x="1124" y="548" fill="#87927f" text-anchor="end" font-family="IBM Plex Mono, monospace" font-size="20">SHUNLYU.COM</text>
</svg>
